<?xml version="1.0" standalone="no"?>
<!DOCTYPE svg PUBLIC "-//W3C//DTD SVG 20010904//EN"
 "http://www.w3.org/TR/2001/REC-SVG-20010904/DTD/svg10.dtd">
<svg version="1.0" xmlns="http://www.w3.org/2000/svg"
 width="512.000000pt" height="512.000000pt" viewBox="0 0 512.000000 512.000000"
 preserveAspectRatio="xMidYMid meet">
<metadata>
Created by potrace 1.14, written by Peter Selinger 2001-2017
</metadata>
<g transform="translate(0.000000,512.000000) scale(0.100000,-0.100000)"
fill="#000000" stroke="none">
<path d="M2310 4010 c-238 -15 -604 -88 -786 -156 l-42 -16 25 -73 24 -74 139
-3 c118 -2 142 -6 157 -21 17 -17 18 -75 18 -1105 l0 -1087 -23 -58 c-35 -86
-98 -128 -244 -163 -40 -9 -74 -18 -76 -19 -1 -1 9 -31 22 -66 l24 -64 440 -3
440 -2 26 31 c23 27 25 34 14 49 -135 183 -186 301 -208 480 -6 52 -10 451
-10 1041 l0 956 23 34 c53 79 138 104 317 96 231 -10 391 -95 503 -265 90
-136 128 -278 128 -472 0 -240 -56 -397 -191 -536 -93 -95 -209 -148 -358
-163 -81 -8 -121 -6 -245 14 -56 9 -83 -8 -93 -60 -19 -105 118 -167 366 -166
278 1 487 72 654 223 236 213 338 591 255 946 -83 359 -357 601 -768 677 -83
15 -326 36 -386 33 -16 0 -82 -4 -145 -8z"/>
</g>
</svg>
